PathFileType	4	(X/Y/Z)	./resultDataOpenSim/trcMotMarkerGrf/sub06/qtm-12-01.trc
DataRate	CameraRate	NumFrames	NumMarkers	Units	OrigDataRate	OrigDataStartFrame	OrigNumFrames
250.000000	250.000000	8	24	m	250.000000	184	490
Frame#	Time	L.Toe.Tip			R.Toe.Tip			L.Ankle.Lat			R.Ankle.Lat			L.Ankle.Med			R.Ankle.Med			L.Heel			R.Heel			L.Knee.Lat			R.Knee.Lat			L.Knee.Med			R.Knee.Med			L.Thigh.Upper			R.Thigh.Upper			L.ASIS			R.ASIS			V.Sacral			L.Acromium			R.Acromium			C7			L.Elbow			R.Elbow			L.Wrist.Lat			R.Wrist.Lat
		X1	Y1	Z1	X2	Y2	Z2	X3	Y3	Z3	X4	Y4	Z4	X5	Y5	Z5	X6	Y6	Z6	X7	Y7	Z7	X8	Y8	Z8	X9	Y9	Z9	X10	Y10	Z10	X11	Y11	Z11	X12	Y12	Z12	X13	Y13	Z13	X14	Y14	Z14	X15	Y15	Z15	X16	Y16	Z16	X17	Y17	Z17	X18	Y18	Z18	X19	Y19	Z19	X20	Y20	Z20	X21	Y21	Z21	X22	Y22	Z22	X23	Y23	Z23	X24	Y24	Z24

184	0.732	0.13718397	0.010001752	-0.045322728	-0.48890604	0.10524574	0.1071778	0.014096277	0.042372392	-0.069102177	-0.48798642	0.25034857	0.11993949	0.01273026	0.055744337	0.017892091	-0.44279716	0.22484057	0.044844886	-0.061583349	0.014699538	-0.025245058	-0.50524525	0.28573036	0.050167729	0.067471375	0.41253529	-0.091554955	-0.14082472	0.37960057	0.19630926	0.037849378	0.41210909	0.027291293	-0.13585111	0.36097523	0.062549151	-0.064860246	0.78380354	-0.15745146	-0.16549669	0.74134588	0.17406693	-0.010820119	0.82025432	-0.094657013	-0.061005065	0.80326012	0.14300815	-0.22116464	0.88817202	-0.00047380851	-0.070946936	1.2752176	-0.19926068	-0.1030314	1.2977337	0.16173013	-0.17053744	1.3260857	-0.030259404	-0.16907147	0.97873193	-0.2227111	-0.15542222	0.98119929	0.25991106	-0.10851859	0.74947729	-0.28412666	0.070626525	0.8747758	0.23389421
185	0.736	0.13709968	0.010013103	-0.045352482	-0.47141586	0.10763574	0.10720927	0.014022505	0.042429855	-0.069146341	-0.47125389	0.25289597	0.1202479	0.012593766	0.055809576	0.017837749	-0.42711359	0.22751783	0.044755044	-0.061662988	0.014732465	-0.025276558	-0.49013522	0.2878084	0.050244037	0.068842718	0.412236	-0.091568823	-0.12560647	0.38157935	0.19604667	0.037899373	0.41244813	0.027167251	-0.12100337	0.36295813	0.062067321	-0.058737842	0.78537699	-0.15787148	-0.15833436	0.74358363	0.17497755	-0.0054045046	0.82219989	-0.095517309	-0.05495383	0.80558322	0.14285229	-0.21476355	0.89041199	-0.00013668491	-0.063608779	1.2774687	-0.19898282	-0.096690095	1.2996112	0.1618908	-0.16364246	1.3281838	-0.030254014	-0.15912172	0.97962627	-0.22299386	-0.1515699	0.98326973	0.25836916	-0.09439081	0.75133207	-0.28382244	0.072319026	0.8716848	0.23492651
186	0.74	0.13702285	0.010026546	-0.045381353	-0.45352714	0.10984676	0.10724397	0.013932661	0.042485466	-0.069190898	-0.45474331	0.25515739	0.1204606	0.012437368	0.055906657	0.017734068	-0.4113194	0.23008979	0.044655597	-0.061738334	0.014770535	-0.025309577	-0.47504569	0.28972113	0.050336182	0.070170605	0.41199618	-0.091469621	-0.11047791	0.38381757	0.19567895	0.03770291	0.41296306	0.027028411	-0.10620837	0.365217	0.06146697	-0.052712768	0.78680732	-0.15834383	-0.15104287	0.74598329	0.17577353	6.5893394e-05	0.82416313	-0.096292105	-0.048737477	0.80802184	0.14258471	-0.20859447	0.89276308	-0.00046446262	-0.056337309	1.2797975	-0.19870424	-0.090385326	1.3015456	0.16209138	-0.15675855	1.3303256	-0.03020708	-0.14913632	0.98058957	-0.22322984	-0.14766126	0.98542386	0.25682669	-0.080150333	0.75338102	-0.28348617	0.073777552	0.86871556	0.23599944
187	0.744	0.13694452	0.010043711	-0.045413195	-0.43530207	0.11187612	0.10728755	0.013800466	0.042526967	-0.069257569	-0.4385946	0.25704448	0.12050731	0.012259368	0.056035791	0.017589289	-0.39539261	0.2325203	0.044502115	-0.061814329	0.014815593	-0.025345504	-0.45992685	0.29144915	0.050455224	0.071416953	0.41181148	-0.091295994	-0.095456142	0.3863215	0.19522041	0.037423749	0.41361542	0.026924488	-0.091517438	0.36772026	0.060760458	-0.046903865	0.78813211	-0.15889069	-0.1435661	0.7484943	0.17621982	0.0055845394	0.82612133	-0.097000488	-0.042368695	0.81059321	0.14221493	-0.20265073	0.89513943	-0.0013163454	-0.049175163	1.2821963	-0.19841931	-0.084109239	1.3035317	0.16232121	-0.14989134	1.332497	-0.030121379	-0.13916998	0.98161759	-0.22346193	-0.14372586	0.98765945	0.25528322	-0.065796893	0.7556241	-0.28311101	0.074959205	0.86586908	0.2371038
188	0.748	0.13685661	0.010061717	-0.045441441	-0.41681062	0.11372216	0.10733678	0.013614516	0.042556068	-0.069355907	-0.42271355	0.25857386	0.12042626	0.012069718	0.056182088	0.017444437	-0.37933746	0.23478122	0.044309169	-0.061896465	0.014866576	-0.025383019	-0.44478894	0.29295034	0.05061256	0.072541768	0.41168898	-0.091076075	-0.080532943	0.38909158	0.19468864	0.037152008	0.41434525	0.026872949	-0.076931578	0.37045918	0.059980387	-0.041348214	0.78938972	-0.15949742	-0.13613533	0.75108234	0.17620931	0.0110937	0.82806137	-0.097677816	-0.035929455	0.81325757	0.14181588	-0.1969051	0.8974822	-0.0023630634	-0.042160937	1.2846565	-0.19812728	-0.077868789	1.305564	0.16256361	-0.14304694	1.3346847	-0.029999051	-0.1293489	0.9827239	-0.22386155	-0.13981005	0.98997255	0.25374447	-0.051357087	0.75805518	-0.28269343	0.075909617	0.86314986	0.23822598
189	0.752	0.13675499	0.010069536	-0.045450376	-0.39812174	0.11538376	0.10738347	0.013396517	0.04258989	-0.069472045	-0.40689928	0.2598178	0.12031115	0.011870544	0.056325177	0.017336247	-0.36317009	0.23685173	0.044141331	-0.061987617	0.014919755	-0.025420702	-0.42968958	0.29416119	0.050818204	0.073521704	0.41163918	-0.090824256	-0.065689685	0.39211251	0.19409742	0.036910034	0.41508112	0.026859913	-0.062387175	0.37344377	0.059196579	-0.036000385	0.79059741	-0.16012275	-0.12909935	0.75372886	0.17567635	0.016568577	0.82997589	-0.098359365	-0.029556069	0.81595283	0.14146066	-0.19123609	0.89976893	-0.003321461	-0.035281221	1.2871654	-0.19783228	-0.071670061	1.3076316	0.16280591	-0.13623101	1.3368764	-0.029843	-0.11971164	0.98391327	-0.22448369	-0.13596992	0.99235582	0.25222032	-0.036866288	0.76066001	-0.28223281	0.076713582	0.86056333	0.239357
190	0.756	0.13663934	0.010055885	-0.045427982	-0.37928779	0.11686651	0.10742941	0.013180151	0.042647363	-0.069581802	-0.39100166	0.26083487	0.12023619	0.011669804	0.0564628	0.017261714	-0.34691523	0.23871456	0.044046076	-0.062085996	0.014971756	-0.025457239	-0.41466935	0.29503648	0.051081466	0.074341696	0.41166525	-0.090557722	-0.050913139	0.39535568	0.19344986	0.036682926	0.41575829	0.026858196	-0.047792027	0.37667414	0.058467204	-0.030828901	0.79174531	-0.16073148	-0.12258827	0.75644569	0.17468893	0.022044225	0.83186215	-0.099071571	-0.023334558	0.81862415	0.14117337	-0.18538283	0.90197607	-0.0040520259	-0.028496622	1.28971	-0.19753728	-0.065507653	1.3097169	0.1630439	-0.12945028	1.3390619	-0.029660944	-0.11009282	0.98515553	-0.22509173	-0.13223526	0.99479397	0.25072412	-0.022348147	0.7634211	-0.28172823	0.077407305	0.85810918	0.24049702
191	0.76	0.13651623	0.010028738	-0.045390833	-0.36033435	0.11818687	0.10749768	0.012980665	0.042734318	-0.069671897	-0.37498208	0.26164367	0.12022418	0.011494114	0.05661736	0.017184185	-0.33063485	0.24034513	0.044011613	-0.062185556	0.01502409	-0.025489301	-0.39971866	0.29557895	0.051410329	0.074985393	0.41176289	-0.090306269	-0.036204895	0.39879605	0.19274037	0.036467775	0.4163402	0.026854038	-0.033131153	0.38013881	0.057754652	-0.025894726	0.7928067	-0.16131278	-0.11639504	0.75926925	0.17361375	0.027584243	0.83371925	-0.099826109	-0.017215762	0.82125738	0.14091878	-0.17908868	0.90407082	-0.0045384251	-0.021785568	1.292278	-0.19724604	-0.059363962	1.3117999	0.16327736	-0.12271055	1.3412334	-0.029463054	-0.10024046	0.98640465	-0.2253088	-0.12856848	0.99726719	0.24927304	-0.007807685	0.76632838	-0.28117469	0.0779772	0.85578394	0.24164973
